<?xml version="1.0" encoding="UTF-8"?>
<svg version="1.1" id="Ebene_1" xmlns="http://www.w3.org/2000/svg" xmlns:xlink="http://www.w3.org/1999/xlink" x="0px" y="0px" width="1200px" height="411.5px" viewBox="0 0 1200 411.5">
<path d="M541.3,3h93.1c51.2,0,74,18.9,74,70.5v38c0,49.6-16.2,73.1-67.4,73.1h-99.7L541.3,3z M590.3,142.5h42.9  c18.1,0,24.7-11.9,24.7-31v-38c0-23.5-7.6-28.3-24.7-28.3h-42.9V142.5z M770.6,153.4l-9.1,31.2h-51L765.7,3h74.5L896,184.6h-50  l-9.6-31.2H770.6z M803.9,39.4h-0.5L781.1,118h45.6L803.9,39.4z M977.2,184.6h-49V45.2h-56.7V3h164.9v42.1h-59.2L977.2,184.6z   M1071.7,153.4l-9.1,31.2h-51L1066.8,3h74.5l55.9,181.6h-50l-9.6-31.2H1071.7z M1105,39.4h-0.5l-22.3,78.7h45.6L1105,39.4z   M593.2,298.3h84.9V332h-84.9v35.4H685V407H544.2V225.4h139v39.7h-90V298.3z M758.2,375.8l-9.1,31.2h-51l55.1-181.6h74.5L883.6,407  h-50l-9.6-31.2H758.2z M791.5,261.8H791l-22.3,78.7h45.6L791.5,261.8z M978.4,296.6c56.7,3.9,70.8,10.7,70.8,52.3  c0,30,1.3,59.6-83,59.6c-48.8,0-81.3-1-81.3-60.5H934c0,18.9,7.2,20.8,32.2,20.8c24,0,31.9-1.5,31.9-16.7c0-15.7-2.8-15.5-26.8-17  l-11.2-0.7c-47.3-3.1-74.9-2.9-74.9-55s30.9-55.4,81-55.4c41.9,0,77.7,0.7,77.7,50.8v7.5h-49.1c0-18.6-8.2-18.6-28.6-18.6  c-27.6,0-29.9,5.3-29.9,15.5c0,14.5,7.4,15,21,16L978.4,296.6z M1150.5,407h-49V267.6h-47v-42.1H1200v42.1h-49.5V407z M304.4,201.1  H467v-120c-10.7-2.9-22-4.5-33.6-4.5C363.7,76.6,306.8,132.1,304.4,201.1z M433.4,334.9c11.6,0,22.9-1.6,33.6-4.5v-120H304.4  C306.8,279.4,363.7,334.9,433.4,334.9z M433.4,0c-96.7,0-177.9,66.8-199.9,156.7C211.5,66.8,130.4,0,33.6,0C22.2,0,10.9,1,0,2.8  v68.8c10.8-2.7,22-4.1,33.6-4.1c76.3,0,138.4,62.1,138.4,138.4S109.9,344.1,33.6,344.1c-11.6,0-22.9-1.4-33.6-4.1v68.8  c10.9,1.8,22.2,2.8,33.6,2.8c96.7,0,177.9-66.8,199.9-156.7c22,90,103.1,156.7,199.9,156.7c11.5,0,22.7-1,33.6-2.8V340  c-10.8,2.7-22,4.1-33.6,4.1C357.1,344.1,295,282,295,205.7S357.1,67.4,433.4,67.4c11.6,0,22.9,1.4,33.6,4.1V2.8  C456.1,1,444.8,0,433.4,0L433.4,0z M162.8,205.8c0-71.2-57.9-129.1-129.1-129.1C22,76.6,10.7,78.2,0,81.1v249.3  c10.7,2.9,22,4.5,33.6,4.5C104.8,334.9,162.8,277,162.8,205.8L162.8,205.8z"/>
</svg>