<?xml version="1.0" encoding="UTF-8" standalone="no"?>
<svg xmlns="http://www.w3.org/2000/svg" version="1.2" baseProfile="tiny" viewBox="0 0 800 450">
<path fill="none" stroke-width="1.00" stroke="#f4f4f4" vector-effect="non-scaling-stroke" d="
  M 519.75 69.21
  L 527.98 69.88
  L 546.24 71.54
  L 569.62 73.65
  L 584.50 75.51
  L 598.94 78.94
  L 612.36 84.39
  L 612.36 84.39
  L 612.36 84.39
  L 623.97 91.29
  L 634.70 99.95
  L 641.03 106.38
  L 646.69 113.16
  L 651.70 120.29
  L 656.06 127.76
  L 656.06 127.76
  L 656.06 127.76
  L 656.06 127.76
  L 661.61 140.32
  L 665.51 153.75
  L 669.83 175.46
  L 673.04 196.67
  L 675.11 217.21
  L 676.06 237.17
  L 675.91 256.82
  L 674.66 275.86
  L 672.25 294.77
  L 668.75 313.04
  L 668.18 313.42
  L 667.98 313.83
  L 665.35 321.76
  L 662.09 329.40
  L 658.09 336.98
  L 653.48 344.18
  L 648.32 350.97
  L 642.64 357.30
  L 636.48 363.14
  L 629.88 368.44
  L 622.97 373.13
  L 615.71 377.22
  L 608.14 380.69
  L 600.30 383.49
  L 592.36 385.57
  L 584.23 386.93
  L 576.26 387.54
  L 568.18 387.43
  L 568.18 387.43
  L 567.76 387.40
  L 530.66 384.25
  L 493.52 381.70
  L 419.43 378.41
  L 385.95 378.24
  L 345.52 379.64
  L 305.13 381.77
  L 305.13 381.77
  L 266.92 384.45
  L 228.75 387.79
  L 219.73 387.57
  L 210.79 386.32
  L 201.58 384.01
  L 192.60 380.78
  L 183.38 376.44
  L 174.60 371.29
  L 166.06 365.24
  L 158.18 358.57
  L 152.70 352.69
  L 145.71 343.75
  L 145.01 342.25
  L 144.00 341.21
  L 140.79 335.50
  L 139.27 333.03
  L 138.29 332.00
  L 133.02 319.20
  L 129.74 307.01
  L 126.82 288.92
  L 124.89 270.10
  L 124.00 251.24
  L 124.13 231.76
  L 125.27 212.17
  L 127.46 192.13
  L 130.61 172.33
  L 134.79 152.27
  L 138.09 141.00
  L 142.58 130.32
  L 142.58 130.32
  L 147.07 122.16
  L 152.33 114.38
  L 158.37 106.99
  L 165.19 99.97
  L 176.24 91.10
  L 188.20 84.08
  L 188.20 84.08
  L 201.76 78.69
  L 216.33 75.35
  L 253.52 71.46
  L 266.50 70.44
  L 321.52 66.65
  L 322.38 66.29
  L 327.37 60.15
  L 327.56 59.83
  L 328.84 58.51
  L 330.59 58.00
  L 354.60 56.99
  L 378.92 56.63
  L 379.85 56.90
  L 384.69 59.55
  L 389.53 61.45
  L 394.37 62.59
  L 399.21 62.97
  L 399.21 62.97
  L 399.21 62.97
  L 404.12 62.59
  L 409.04 61.43
  L 413.95 59.49
  L 418.86 56.78
  L 419.78 56.52
  L 469.93 58.01
  L 470.84 58.34
  L 474.15 62.09
  L 477.79 66.28
  L 478.67 66.65
  L 519.75 69.21
  Z
  M 327.00 92.79
  L 318.99 92.96
  L 309.75 93.71
  L 269.00 96.29
  L 265.50 96.46
  L 264.75 96.71
  L 258.07 97.22
  L 252.55 98.37
  L 247.82 100.21
  L 243.63 102.92
  L 239.50 107.30
  L 236.20 113.24
  L 236.00 115.25
  L 234.41 120.11
  L 234.29 125.50
  L 233.79 132.75
  L 232.56 145.91
  L 232.04 161.00
  L 231.48 168.22
  L 231.03 181.15
  L 230.54 219.48
  L 230.77 253.56
  L 231.71 285.52
  L 233.43 316.36
  L 233.57 318.37
  L 234.64 329.50
  L 236.68 336.82
  L 236.68 336.82
  L 241.00 344.04
  L 246.46 349.25
  L 249.46 351.25
  L 253.45 353.25
  L 258.50 355.04
  L 260.71 355.61
  L 262.75 355.71
  L 269.75 356.21
  L 288.75 357.29
  L 301.65 358.21
  L 312.00 358.46
  L 312.21 358.50
  L 321.78 359.12
  L 331.75 359.21
  L 333.75 359.29
  L 358.75 360.31
  L 390.94 360.80
  L 435.30 360.49
  L 452.75 359.96
  L 466.00 359.29
  L 467.00 359.21
  L 477.76 359.14
  L 487.50 358.54
  L 487.75 358.46
  L 500.01 358.13
  L 506.02 357.77
  L 513.19 357.37
  L 531.00 355.96
  L 531.25 355.96
  L 539.47 355.43
  L 546.00 353.25
  L 551.15 350.82
  L 555.56 347.56
  L 555.56 347.56
  L 559.26 343.45
  L 562.21 338.50
  L 563.21 336.50
  L 565.58 327.17
  L 566.35 314.52
  L 566.46 310.50
  L 567.85 286.89
  L 568.21 268.50
  L 568.46 263.50
  L 568.71 255.50
  L 569.06 218.38
  L 568.69 184.81
  L 568.29 182.75
  L 568.01 174.24
  L 567.97 165.02
  L 567.62 160.21
  L 567.27 154.81
  L 567.13 147.88
  L 566.25 141.04
  L 566.54 139.16
  L 566.21 137.25
  L 565.96 130.75
  L 565.95 126.52
  L 565.46 123.50
  L 564.91 118.46
  L 563.50 113.96
  L 562.91 111.55
  L 561.50 109.21
  L 559.13 105.88
  L 556.31 103.07
  L 553.03 100.77
  L 549.29 99.00
  L 546.83 98.00
  L 535.66 96.53
  L 523.50 95.71
  L 519.25 95.54
  L 496.50 94.04
  L 482.36 93.40
  L 469.75 92.79
  L 447.03 91.84
  L 439.74 91.67
  L 399.33 90.95
  L 363.08 91.53
  L 354.67 91.72
  L 327.00 92.79
  Z
  M 613.94 153.66
  L 615.00 156.96
  L 615.96 158.50
  L 618.14 161.77
  L 620.85 164.20
  L 620.85 164.20
  L 623.57 165.66
  L 626.50 166.51
  L 632.66 166.48
  L 638.61 164.30
  L 643.61 160.15
  L 646.57 153.10
  L 646.99 149.80
  L 646.70 146.64
  L 646.70 146.64
  L 646.70 146.64
  L 646.70 146.64
  L 645.04 142.34
  L 641.89 138.35
  L 636.79 134.85
  L 631.04 133.48
  L 631.04 133.48
  L 625.63 134.14
  L 620.51 136.68
  L 617.91 138.96
  L 615.94 141.61
  L 615.94 141.61
  L 614.00 147.09
  L 613.94 153.66
  Z
  M 162.21 146.75
  L 157.83 151.73
  L 155.38 157.26
  L 155.68 158.00
  L 157.29 159.50
  L 155.64 164.68
  L 155.04 169.50
  L 155.36 175.24
  L 156.39 180.48
  L 158.12 185.22
  L 160.57 189.48
  L 160.57 189.48
  L 160.57 189.48
  L 163.57 193.08
  L 167.21 196.24
  L 171.51 198.94
  L 176.45 201.19
  L 181.24 202.38
  L 186.03 202.76
  L 186.03 202.76
  L 190.51 202.38
  L 195.00 201.29
  L 200.82 198.95
  L 205.87 195.61
  L 205.87 195.61
  L 210.78 190.53
  L 214.40 184.46
  L 216.60 177.62
  L 217.26 170.25
  L 217.26 165.38
  L 216.21 160.01
  L 216.75 157.66
  L 216.87 156.76
  L 214.75 152.38
  L 211.79 148.50
  L 207.60 144.58
  L 202.91 141.38
  L 197.84 138.95
  L 192.52 137.34
  L 187.06 136.58
  L 181.57 136.73
  L 176.47 137.74
  L 171.56 139.63
  L 171.56 139.63
  L 166.66 142.65
  L 162.21 146.75
  Z
  M 584.81 185.34
  L 586.79 188.75
  L 590.25 192.04
  L 591.46 193.08
  L 592.96 193.75
  L 593.75 194.04
  L 599.81 195.43
  L 602.97 195.29
  L 605.94 194.56
  L 608.82 193.22
  L 611.36 191.35
  L 613.49 189.02
  L 615.15 186.29
  L 616.27 183.26
  L 616.80 179.97
  L 616.04 173.50
  L 614.00 169.68
  L 611.52 166.66
  L 608.46 164.28
  L 605.14 162.76
  L 605.14 162.76
  L 600.12 162.00
  L 595.18 162.82
  L 590.71 165.08
  L 587.07 168.67
  L 587.07 168.67
  L 585.12 172.17
  L 584.03 176.28
  L 583.92 180.59
  L 584.81 185.34
  Z
  M 179.56 212.44
  L 174.57 211.61
  L 165.65 208.51
  L 157.19 203.38
  L 156.98 203.25
  L 157.14 203.45
  L 157.57 203.89
  L 157.57 203.89
  L 161.13 206.99
  L 165.06 209.51
  L 169.55 211.54
  L 174.28 212.92
  L 179.20 213.64
  L 184.18 213.71
  L 189.16 213.12
  L 194.03 211.88
  L 194.27 211.78
  L 194.02 211.80
  L 186.22 212.60
  L 179.56 212.44
  Z
  M 184.00 235.21
  L 183.00 236.96
  L 183.00 236.96
  L 181.88 241.79
  L 182.62 246.66
  L 185.11 251.26
  L 189.01 254.65
  L 194.03 256.48
  L 198.92 256.46
  L 198.92 256.46
  L 201.92 255.55
  L 204.62 254.01
  L 206.91 251.90
  L 208.70 249.31
  L 208.70 249.31
  L 208.70 249.31
  L 210.20 244.63
  L 209.96 239.25
  L 209.44 236.45
  L 207.85 234.93
  L 203.78 230.69
  L 201.26 229.27
  L 196.28 228.23
  L 191.26 229.03
  L 187.11 231.35
  L 184.08 235.06
  L 184.00 235.21
  Z
  M 599.00 229.04
  L 594.00 232.12
  L 590.69 236.59
  L 589.77 239.41
  L 589.49 242.30
  L 590.67 247.95
  L 593.88 252.73
  L 596.15 254.55
  L 598.81 255.86
  L 598.81 255.86
  L 598.81 255.86
  L 598.81 255.86
  L 604.00 256.61
  L 609.30 255.44
  L 612.39 253.82
  L 614.80 251.63
  L 614.80 251.63
  L 614.80 251.63
  L 616.34 249.25
  L 617.36 246.43
  L 617.84 239.49
  L 615.29 234.00
  L 612.47 231.15
  L 608.75 229.25
  L 603.97 228.13
  L 599.00 229.04
  Z
  M 192.0755 290.3546
  L 191.7208 289.4116
  L 190.7212 288.9540
  L 189.6624 289.2496
  L 189.1645 290.1254
  L 189.5192 291.0684
  L 190.5188 291.5260
  L 191.5776 291.2304
  L 192.0755 290.3546
  Z
  M 166.89 296.06
  L 168.02 295.84
  L 168.47 294.88
  L 168.07 293.86
  L 166.82 293.48
  L 166.00 293.93
  L 165.71 295.27
  L 166.89 296.06
  Z
  M 199.0266 294.8139
  L 198.1155 293.7695
  L 197.3373 293.7164
  L 196.2929 294.6275
  L 196.2534 295.2061
  L 197.1645 296.2505
  L 197.9427 296.3036
  L 198.9871 295.3925
  L 199.0266 294.8139
  Z
  M 183.53 296.33
  L 183.12 295.33
  L 182.12 294.92
  L 181.12 295.33
  L 180.71 296.33
  L 181.12 297.33
  L 182.12 297.74
  L 183.12 297.33
  L 183.53 296.33
  Z
  M 619.1406 296.7506
  L 618.9571 295.7367
  L 618.0372 295.0938
  L 616.9198 295.1985
  L 616.2594 295.9894
  L 616.4429 297.0033
  L 617.3628 297.6462
  L 618.4802 297.5415
  L 619.1406 296.7506
  Z
  M 176.62 298.20
  L 176.21 297.21
  L 175.22 296.80
  L 174.23 297.21
  L 173.82 298.20
  L 174.23 299.19
  L 175.22 299.60
  L 176.21 299.19
  L 176.62 298.20
  Z
  M 190.3799 297.6695
  L 189.7298 296.9067
  L 188.6287 296.8136
  L 187.7217 297.4448
  L 187.5401 298.4305
  L 188.1902 299.1933
  L 189.2913 299.2864
  L 190.1983 298.6552
  L 190.3799 297.6695
  Z
  M 163.8738 301.1469
  L 163.2219 300.3223
  L 162.1295 300.1933
  L 161.2366 300.8357
  L 161.0662 301.8731
  L 161.7181 302.6977
  L 162.8105 302.8267
  L 163.7034 302.1843
  L 163.8738 301.1469
  Z
  M 171.8160 302.9666
  L 171.2525 302.0596
  L 170.1603 301.8031
  L 169.1793 302.3473
  L 168.8840 303.3734
  L 169.4475 304.2804
  L 170.5397 304.5369
  L 171.5207 303.9927
  L 171.8160 302.9666
  Z
  M 195.4729 303.4660
  L 195.3443 302.4616
  L 194.4809 301.7902
  L 193.3886 301.8450
  L 192.7071 302.5940
  L 192.8357 303.5984
  L 193.6991 304.2698
  L 194.7914 304.2150
  L 195.4729 303.4660
  Z
  M 181.08 303.33
  L 180.86 304.65
  L 182.07 305.41
  L 183.39 304.85
  L 183.18 303.03
  L 183.01 302.81
  L 182.02 302.61
  L 181.08 303.33
  Z
  M 162.16 309.85
  L 161.74 308.83
  L 160.72 308.41
  L 159.70 308.83
  L 159.28 309.85
  L 159.70 310.87
  L 160.72 311.29
  L 161.74 310.87
  L 162.16 309.85
  Z
  M 169.9984 310.1485
  L 169.5983 309.2101
  L 168.5490 308.7813
  L 167.4651 309.1133
  L 166.9816 310.0115
  L 167.3817 310.9499
  L 168.4310 311.3787
  L 169.5149 311.0467
  L 169.9984 310.1485
  Z
  M 177.60 310.04
  L 177.19 309.06
  L 176.21 308.65
  L 175.23 309.06
  L 174.82 310.04
  L 175.23 311.02
  L 176.21 311.43
  L 177.19 311.02
  L 177.60 310.04
  Z
  M 203.81 309.12
  L 202.51 309.45
  L 202.71 311.12
  L 203.43 311.56
  L 205.06 310.98
  L 204.63 309.58
  L 203.81 309.12
  Z
  M 163.74 318.19
  L 163.32 317.18
  L 162.31 316.76
  L 161.30 317.18
  L 160.88 318.19
  L 161.30 319.20
  L 162.31 319.62
  L 163.32 319.20
  L 163.74 318.19
  Z
  M 176.82 321.90
  L 176.40 320.87
  L 175.37 320.45
  L 174.34 320.87
  L 173.92 321.90
  L 174.34 322.93
  L 175.37 323.35
  L 176.40 322.93
  L 176.82 321.90
  Z
  M 183.69 323.80
  L 183.25 322.75
  L 182.20 322.31
  L 181.15 322.75
  L 180.71 323.80
  L 181.15 324.85
  L 182.20 325.29
  L 183.25 324.85
  L 183.69 323.80
  Z
  M 168.0321 325.7938
  L 168.0297 324.4220
  L 167.5338 323.9279
  L 166.1620 323.9303
  L 165.6679 324.4262
  L 165.6703 325.7980
  L 166.1662 326.2921
  L 167.5380 326.2897
  L 168.0321 325.7938
  Z
  M 175.11 329.80
  L 174.69 328.78
  L 173.67 328.36
  L 172.65 328.78
  L 172.23 329.80
  L 172.65 330.82
  L 173.67 331.24
  L 174.69 330.82
  L 175.11 329.80
  Z"
/>
<path fill="none" stroke-width="1.00" stroke="#f4f4f4" vector-effect="non-scaling-stroke" d="
  M 402.57 77.55
  L 400.28 78.68
  L 398.62 78.61
  L 398.62 78.61
  L 398.62 78.61
  L 397.32 77.33
  L 396.62 75.16
  L 396.45 67.32
  L 396.52 65.79
  L 397.01 65.19
  L 400.97 64.96
  L 403.09 65.25
  L 403.56 65.87
  L 403.45 75.92
  L 402.57 77.55
  Z"
/>
<path fill="none" stroke-width="1.00" stroke="#f4f4f4" vector-effect="non-scaling-stroke" d="
  M 527.98 69.88
  L 519.75 69.21
  L 520.06 68.31
  L 520.58 67.69
  L 521.48 67.48
  L 527.31 68.08
  L 527.97 68.57
  L 527.98 69.88
  Z"
/>
<path fill="none" stroke-width="1.00" stroke="#f4f4f4" vector-effect="non-scaling-stroke" d="
  M 253.52 71.46
  L 216.33 75.35
  L 201.76 78.69
  L 188.20 84.08
  L 188.20 84.08
  L 188.20 84.08
  L 176.24 91.10
  L 165.19 99.97
  L 158.46 93.27
  L 157.78 91.85
  L 158.73 90.70
  L 164.60 87.66
  L 181.93 80.73
  L 199.68 75.57
  L 216.91 72.31
  L 234.52 70.65
  L 237.97 70.45
  L 252.69 70.14
  L 252.98 70.22
  L 253.52 71.46
  Z"
/>
<path fill="none" stroke-width="1.00" stroke="#f4f4f4" vector-effect="non-scaling-stroke" d="
  M 634.70 99.95
  L 623.97 91.29
  L 612.36 84.39
  L 612.36 84.39
  L 612.36 84.39
  L 598.94 78.94
  L 584.50 75.51
  L 569.62 73.65
  L 546.24 71.54
  L 546.87 70.46
  L 547.68 70.07
  L 560.35 70.23
  L 573.06 71.09
  L 585.34 72.63
  L 597.51 74.90
  L 608.95 77.76
  L 620.16 81.34
  L 630.72 85.51
  L 640.95 90.40
  L 642.17 91.72
  L 641.39 93.33
  L 634.70 99.95
  Z"
/>
<path fill="none" stroke-width="1.00" stroke="#f4f4f4" vector-effect="non-scaling-stroke" d="
  M 469.75 92.79
  L 468.71 93.25
  L 444.51 92.63
  L 423.33 92.02
  L 380.31 91.95
  L 348.69 92.67
  L 328.00 93.29
  L 327.00 92.79
  L 354.67 91.72
  L 363.08 91.53
  L 399.33 90.95
  L 439.74 91.67
  L 447.03 91.84
  L 469.75 92.79
  Z"
/>
<path fill="none" stroke-width="1.00" stroke="#f4f4f4" vector-effect="non-scaling-stroke" d="
  M 327.00 92.79
  L 328.00 93.29
  L 313.50 94.21
  L 309.75 93.71
  L 318.99 92.96
  L 327.00 92.79
  Z"
/>
<path fill="none" stroke-width="1.00" stroke="#f4f4f4" vector-effect="non-scaling-stroke" d="
  M 469.75 92.79
  L 482.36 93.40
  L 496.50 94.04
  L 497.00 94.71
  L 487.67 94.35
  L 468.71 93.25
  L 469.75 92.79
  Z"
/>
<path fill="none" stroke-width="1.00" stroke="#f4f4f4" vector-effect="non-scaling-stroke" d="
  M 309.75 93.71
  L 313.50 94.21
  L 265.75 97.21
  L 264.75 96.71
  L 265.50 96.46
  L 267.67 96.75
  L 269.00 96.29
  L 309.75 93.71
  Z"
/>
<path fill="none" stroke-width="1.00" stroke="#f4f4f4" vector-effect="non-scaling-stroke" d="
  M 496.50 94.04
  L 519.25 95.54
  L 521.26 96.02
  L 523.50 95.71
  L 535.66 96.53
  L 546.83 98.00
  L 546.71 98.75
  L 531.43 97.01
  L 510.12 95.54
  L 497.00 94.71
  L 496.50 94.04
  Z"
/>
<path fill="none" stroke-width="1.00" stroke="#f4f4f4" vector-effect="non-scaling-stroke" d="
  M 519.25 95.54
  L 523.50 95.71
  L 521.26 96.02
  L 519.25 95.54
  Z"
/>
<path fill="none" stroke-width="1.00" stroke="#f4f4f4" vector-effect="non-scaling-stroke" d="
  M 269.00 96.29
  L 267.67 96.75
  L 265.50 96.46
  L 269.00 96.29
  Z"
/>
<path fill="none" stroke-width="1.00" stroke="#f4f4f4" vector-effect="non-scaling-stroke" d="
  M 264.75 96.71
  L 265.75 97.21
  L 257.78 98.21
  L 250.41 100.09
  L 244.32 103.58
  L 244.32 103.58
  L 244.32 103.58
  L 239.54 108.62
  L 236.00 115.25
  L 236.20 113.24
  L 239.50 107.30
  L 243.63 102.92
  L 243.63 102.92
  L 247.82 100.21
  L 252.55 98.37
  L 258.07 97.22
  L 264.75 96.71
  Z"
/>
<path fill="none" stroke-width="1.00" stroke="#f4f4f4" vector-effect="non-scaling-stroke" d="
  M 546.83 98.00
  L 549.29 99.00
  L 548.25 99.29
  L 546.71 98.75
  L 546.83 98.00
  Z"
/>
<path fill="none" stroke-width="1.00" stroke="#f4f4f4" vector-effect="non-scaling-stroke" d="
  M 549.29 99.00
  L 553.03 100.77
  L 556.31 103.07
  L 559.13 105.88
  L 561.50 109.21
  L 561.46 110.25
  L 555.68 103.86
  L 552.16 101.34
  L 548.25 99.29
  L 549.29 99.00
  Z"
/>
<path fill="none" stroke-width="1.00" stroke="#f4f4f4" vector-effect="non-scaling-stroke" d="
  M 561.50 109.21
  L 562.91 111.55
  L 563.50 113.96
  L 563.25 114.04
  L 561.46 110.25
  L 561.50 109.21
  Z"
/>
<path fill="none" stroke-width="1.00" stroke="#f4f4f4" vector-effect="non-scaling-stroke" d="
  M 563.25 114.04
  L 563.50 113.96
  L 564.91 118.46
  L 565.46 123.50
  L 565.12 122.81
  L 564.96 123.25
  L 563.25 114.04
  Z"
/>
<path fill="none" stroke-width="1.00" stroke="#f4f4f4" vector-effect="non-scaling-stroke" d="
  M 417.00 115.29
  L 417.96 115.73
  L 419.75 116.02
  L 495.83 116.00
  L 496.25 115.66
  L 496.25 115.29
  L 529.25 115.54
  L 529.88 117.43
  L 529.90 119.20
  L 530.29 119.84
  L 533.00 120.29
  L 532.75 121.21
  L 267.75 121.21
  L 268.58 120.89
  L 268.75 120.29
  L 271.46 120.10
  L 273.61 119.13
  L 273.61 119.13
  L 273.61 119.13
  L 275.12 117.52
  L 276.15 115.23
  L 361.31 115.33
  L 417.00 115.29
  Z"
/>
<path fill="none" stroke-width="1.00" stroke="#f4f4f4" vector-effect="non-scaling-stroke" d="
  M 496.25 115.29
  L 496.25 115.66
  L 495.83 116.00
  L 419.75 116.02
  L 417.96 115.73
  L 417.00 115.29
  L 434.82 115.08
  L 496.25 115.29
  Z"
/>
<path fill="none" stroke-width="1.00" stroke="#f4f4f4" vector-effect="non-scaling-stroke" d="
  M 236.00 115.25
  L 234.71 125.50
  L 234.29 125.50
  L 234.41 120.11
  L 236.00 115.25
  Z"
/>
<path fill="none" stroke-width="1.00" stroke="#f4f4f4" vector-effect="non-scaling-stroke" d="
  M 276.15 115.23
  L 275.12 117.52
  L 273.61 119.13
  L 273.61 119.13
  L 271.46 120.10
  L 268.75 120.29
  L 265.50 120.46
  L 262.25 115.79
  L 276.15 115.23
  Z"
/>
<path fill="none" stroke-width="1.00" stroke="#f4f4f4" vector-effect="non-scaling-stroke" d="
  M 529.25 115.54
  L 538.74 115.81
  L 538.80 115.82
  L 539.06 116.33
  L 538.96 116.57
  L 537.49 118.60
  L 537.07 119.43
  L 537.29 120.22
  L 538.51 119.62
  L 539.08 119.38
  L 539.35 119.92
  L 539.99 124.51
  L 535.04 122.00
  L 534.58 120.50
  L 533.00 120.29
  L 530.29 119.84
  L 529.90 119.20
  L 529.88 117.43
  L 529.25 115.54
  Z"
/>
<path fill="none" stroke-width="1.00" stroke="#f4f4f4" vector-effect="non-scaling-stroke" d="
  M 262.25 115.79
  L 265.50 120.46
  L 264.69 125.59
  L 264.22 126.25
  L 262.73 126.98
  L 261.39 128.13
  L 261.23 128.24
  L 261.21 128.04
  L 261.14 127.59
  L 260.60 127.72
  L 260.20 128.50
  L 260.04 150.25
  L 259.84 142.52
  L 259.84 142.52
  L 259.68 129.14
  L 260.67 119.98
  L 261.23 119.68
  L 262.75 119.96
  L 263.09 119.91
  L 263.02 119.47
  L 262.29 118.45
  L 260.99 115.91
  L 262.25 115.79
  Z"
/>
<path fill="none" stroke-width="1.00" stroke="#f4f4f4" vector-effect="non-scaling-stroke" d="
  M 268.75 120.29
  L 268.58 120.89
  L 267.75 121.21
  L 266.18 121.91
  L 266.10 123.89
  L 266.25 125.01
  L 266.25 321.96
  L 264.86 322.86
  L 265.04 320.16
  L 264.27 318.27
  L 264.27 318.27
  L 263.87 317.89
  L 260.02 314.75
  L 260.04 150.25
  L 260.20 128.50
  L 260.60 127.72
  L 261.14 127.59
  L 261.21 128.04
  L 261.23 128.24
  L 261.39 128.13
  L 262.73 126.98
  L 264.22 126.25
  L 264.69 125.59
  L 265.50 120.46
  L 268.75 120.29
  Z"
/>
<path fill="none" stroke-width="1.00" stroke="#f4f4f4" vector-effect="non-scaling-stroke" d="
  M 533.00 120.29
  L 534.58 120.50
  L 535.04 122.00
  L 534.97 124.27
  L 535.43 124.94
  L 537.89 125.74
  L 538.72 126.33
  L 539.03 127.28
  L 539.00 155.49
  L 539.26 156.44
  L 539.50 157.25
  L 539.50 181.27
  L 539.34 181.66
  L 539.16 181.81
  L 538.79 182.52
  L 538.77 186.53
  L 539.15 202.94
  L 539.49 203.81
  L 539.48 264.67
  L 539.46 264.80
  L 539.40 264.68
  L 539.08 264.06
  L 538.97 264.75
  L 538.94 271.87
  L 539.23 293.21
  L 539.22 293.37
  L 539.04 293.89
  L 538.90 294.31
  L 538.73 315.18
  L 537.84 317.46
  L 536.72 317.89
  L 535.29 318.57
  L 535.06 320.11
  L 534.98 322.14
  L 534.50 323.21
  L 534.00 323.54
  L 533.12 323.33
  L 532.75 322.46
  L 533.50 322.04
  L 534.15 321.22
  L 534.17 319.62
  L 534.06 318.69
  L 533.96 148.75
  L 534.00 122.50
  L 533.92 122.06
  L 532.75 121.21
  L 533.00 120.29
  Z"
/>
<path fill="none" stroke-width="1.00" stroke="#f4f4f4" vector-effect="non-scaling-stroke" d="
  M 267.75 121.21
  L 532.75 121.21
  L 533.92 122.06
  L 534.00 122.50
  L 533.96 148.75
  L 533.20 148.42
  L 532.78 147.71
  L 532.52 136.25
  L 532.51 123.27
  L 531.75 122.51
  L 267.54 122.53
  L 267.04 123.03
  L 267.01 319.94
  L 267.29 320.82
  L 267.54 321.25
  L 266.50 322.04
  L 266.25 321.96
  L 266.25 125.01
  L 266.10 123.89
  L 266.18 121.91
  L 267.75 121.21
  Z"
/>
<path fill="none" stroke-width="1.00" stroke="#f4f4f4" vector-effect="non-scaling-stroke" d="
  M 535.04 122.00
  L 539.99 124.51
  L 539.99 319.12
  L 539.62 322.16
  L 539.38 323.61
  L 539.37 323.67
  L 538.90 323.84
  L 537.63 323.64
  L 537.27 323.83
  L 537.22 324.59
  L 538.94 327.13
  L 539.06 328.02
  L 538.99 328.11
  L 537.24 327.12
  L 535.54 326.00
  L 534.88 323.80
  L 534.50 323.21
  L 534.98 322.14
  L 535.06 320.11
  L 535.29 318.57
  L 536.72 317.89
  L 537.84 317.46
  L 538.73 315.18
  L 538.90 294.31
  L 539.04 293.89
  L 539.22 293.37
  L 539.23 293.21
  L 538.94 271.87
  L 538.97 264.75
  L 539.08 264.06
  L 539.40 264.68
  L 539.46 264.80
  L 539.48 264.67
  L 539.49 203.81
  L 539.15 202.94
  L 538.77 186.53
  L 538.79 182.52
  L 539.16 181.81
  L 539.34 181.66
  L 539.50 181.27
  L 539.50 157.25
  L 539.26 156.44
  L 539.00 155.49
  L 539.03 127.28
  L 538.72 126.33
  L 537.89 125.74
  L 535.43 124.94
  L 534.97 124.27
  L 535.04 122.00
  Z"
/>
<path fill="none" stroke-width="1.00" stroke="#f4f4f4" vector-effect="non-scaling-stroke" d="
  M 565.46 123.50
  L 565.95 126.52
  L 565.96 130.75
  L 565.29 129.00
  L 564.96 123.25
  L 565.12 122.81
  L 565.46 123.50
  Z"
/>
<path fill="none" stroke-width="1.00" stroke="#f4f4f4" vector-effect="non-scaling-stroke" d="
  M 234.29 125.50
  L 234.71 125.50
  L 233.96 132.75
  L 233.79 132.75
  L 234.29 125.50
  Z"
/>
<path fill="none" stroke-width="1.00" stroke="#f4f4f4" vector-effect="non-scaling-stroke" d="
  M 565.29 129.00
  L 565.96 130.75
  L 566.21 137.25
  L 565.96 140.75
  L 565.29 129.00
  Z"
/>
<path fill="none" stroke-width="1.00" stroke="#f4f4f4" vector-effect="non-scaling-stroke" d="
  M 233.79 132.75
  L 233.96 132.75
  L 233.52 146.54
  L 232.46 160.00
  L 232.04 161.00
  L 232.56 145.91
  L 233.79 132.75
  Z"
/>
<path fill="none" stroke-width="1.00" stroke="#f4f4f4" vector-effect="non-scaling-stroke" d="
  M 643.61 160.15
  L 639.06 163.50
  L 634.09 165.46
  L 629.00 165.93
  L 624.09 164.84
  L 624.09 164.84
  L 619.70 162.14
  L 616.04 157.75
  L 613.94 153.66
  L 614.00 147.09
  L 615.94 141.61
  L 617.91 138.96
  L 620.51 136.68
  L 625.63 134.14
  L 631.04 133.48
  L 636.79 134.85
  L 641.89 138.35
  L 645.04 142.34
  L 646.70 146.64
  L 646.70 146.64
  L 646.70 146.64
  L 646.70 146.64
  L 646.99 149.80
  L 646.57 153.10
  L 643.61 160.15
  Z
  M 627.30 152.79
  L 632.52 152.72
  L 633.46 153.44
  L 634.42 155.66
  L 635.70 156.65
  L 636.00 156.70
  L 636.07 156.70
  L 636.31 156.22
  L 635.85 154.98
  L 635.85 154.98
  L 632.02 145.93
  L 630.64 143.87
  L 629.40 143.20
  L 629.35 143.21
  L 628.74 143.87
  L 628.68 144.05
  L 624.70 154.83
  L 624.41 155.36
  L 623.86 156.95
  L 625.00 156.70
  L 625.66 156.02
  L 626.69 153.30
  L 627.30 152.79
  Z"
/>
<path fill="none" stroke-width="1.00" stroke="#f4f4f4" vector-effect="non-scaling-stroke" d="
  M 532.52 136.25
  L 532.78 147.71
  L 533.20 148.42
  L 533.96 148.75
  L 534.06 318.69
  L 534.17 319.62
  L 534.15 321.22
  L 533.50 322.04
  L 532.25 320.96
  L 532.34 320.82
  L 532.44 320.53
  L 532.52 136.25
  Z"
/>
<path fill="none" stroke-width="1.00" stroke="#f4f4f4" vector-effect="non-scaling-stroke" d="
  M 211.79 148.50
  L 210.59 149.64
  L 208.25 149.79
  L 204.65 146.66
  L 200.77 144.17
  L 196.67 142.32
  L 192.42 141.10
  L 192.42 141.10
  L 185.23 140.47
  L 178.05 141.53
  L 171.40 144.14
  L 165.25 148.29
  L 163.29 148.27
  L 162.21 146.75
  L 166.66 142.65
  L 171.56 139.63
  L 171.56 139.63
  L 171.56 139.63
  L 171.56 139.63
  L 176.47 137.74
  L 181.57 136.73
  L 187.06 136.58
  L 192.52 137.34
  L 197.84 138.95
  L 202.91 141.38
  L 207.60 144.58
  L 211.79 148.50
  Z"
/>
<path fill="none" stroke-width="1.00" stroke="#f4f4f4" vector-effect="non-scaling-stroke" d="
  M 566.21 137.25
  L 566.54 139.16
  L 566.25 141.04
  L 566.04 141.00
  L 565.96 140.75
  L 566.21 137.25
  Z"
/>
<path fill="none" stroke-width="1.00" stroke="#f4f4f4" vector-effect="non-scaling-stroke" d="
  M 208.25 149.79
  L 211.34 153.52
  L 213.77 157.58
  L 213.77 157.58
  L 215.66 162.35
  L 216.79 167.50
  L 216.72 170.95
  L 216.72 171.00
  L 216.23 171.27
  L 214.38 170.71
  L 213.69 170.13
  L 211.60 163.20
  L 211.15 162.37
  L 207.10 159.74
  L 202.86 159.10
  L 199.20 158.78
  L 198.19 151.20
  L 197.10 148.60
  L 195.51 146.53
  L 195.51 146.53
  L 195.51 146.53
  L 191.54 144.27
  L 185.56 143.44
  L 180.59 144.18
  L 176.80 146.44
  L 176.80 146.44
  L 175.10 148.51
  L 173.93 151.04
  L 173.31 153.97
  L 173.29 157.25
  L 173.03 158.02
  L 172.16 158.90
  L 171.22 159.04
  L 167.97 158.92
  L 165.04 159.60
  L 162.38 161.14
  L 160.59 163.47
  L 159.22 167.49
  L 159.22 167.49
  L 158.57 169.69
  L 157.93 170.30
  L 156.36 171.25
  L 155.76 171.99
  L 155.53 172.19
  L 155.41 171.94
  L 155.04 169.50
  L 155.64 164.68
  L 157.29 159.50
  L 160.84 153.48
  L 165.25 148.29
  L 171.40 144.14
  L 178.05 141.53
  L 185.23 140.47
  L 192.42 141.10
  L 192.42 141.10
  L 192.42 141.10
  L 196.67 142.32
  L 200.77 144.17
  L 204.65 146.66
  L 208.25 149.79
  Z"
/>
<path fill="none" stroke-width="1.00" stroke="#f4f4f4" vector-effect="non-scaling-stroke" d="
  M 566.04 141.00
  L 566.25 141.04
  L 567.13 147.88
  L 567.27 154.81
  L 567.62 160.21
  L 567.97 165.02
  L 568.01 174.24
  L 568.29 182.75
  L 567.96 185.50
  L 566.04 141.00
  Z"
/>
<path fill="none" stroke-width="1.00" stroke="#f4f4f4" vector-effect="non-scaling-stroke" d="
  M 199.20 158.78
  L 191.18 157.82
  L 181.26 157.75
  L 174.31 158.27
  L 173.76 157.83
  L 173.49 157.37
  L 173.29 157.25
  L 173.31 153.97
  L 173.93 151.04
  L 175.10 148.51
  L 176.80 146.44
  L 176.80 146.44
  L 176.80 146.44
  L 176.80 146.44
  L 180.59 144.18
  L 185.56 143.44
  L 191.54 144.27
  L 195.51 146.53
  L 195.51 146.53
  L 197.10 148.60
  L 198.19 151.20
  L 199.20 158.78
  Z
  M 189.46 150.75
  L 188.68 148.84
  L 188.00 149.79
  L 187.38 149.33
  L 186.92 148.29
  L 186.52 147.43
  L 186.35 147.32
  L 186.33 147.31
  L 185.71 147.65
  L 184.82 149.34
  L 182.92 151.30
  L 182.75 151.52
  L 183.01 151.59
  L 188.87 151.63
  L 189.50 151.24
  L 189.51 150.91
  L 189.46 150.75
  Z"
/>
<path fill="none" stroke-width="1.00" stroke="#f4f4f4" vector-effect="non-scaling-stroke" d="
  M 632.04 149.75
  L 630.31 150.37
  L 628.05 150.30
  L 629.30 145.56
  L 629.78 144.70
  L 630.23 145.28
  L 632.04 149.75
  Z"
/>
<path fill="none" stroke-width="1.00" stroke="#f4f4f4" vector-effect="non-scaling-stroke" d="
  M 162.21 146.75
  L 163.29 148.27
  L 165.25 148.29
  L 160.84 153.48
  L 157.29 159.50
  L 155.68 158.00
  L 155.38 157.26
  L 157.83 151.73
  L 162.21 146.75
  Z"
/>
<path fill="none" stroke-width="1.00" stroke="#f4f4f4" vector-effect="non-scaling-stroke" d="
  M 189.46 150.75
  L 188.41 150.66
  L 188.00 149.79
  L 188.68 148.84
  L 189.46 150.75
  Z"
/>
<path fill="none" stroke-width="1.00" stroke="#f4f4f4" vector-effect="non-scaling-stroke" d="
  M 211.79 148.50
  L 214.75 152.38
  L 216.87 156.76
  L 216.75 157.66
  L 216.21 160.01
  L 217.26 165.38
  L 217.26 170.25
  L 216.79 167.50
  L 215.66 162.35
  L 213.77 157.58
  L 213.77 157.58
  L 211.34 153.52
  L 208.25 149.79
  L 210.59 149.64
  L 211.79 148.50
  Z"
/>
<path fill="none" stroke-width="1.00" stroke="#f4f4f4" vector-effect="non-scaling-stroke" d="
  M 632.04 149.75
  L 632.16 150.77
  L 631.80 151.65
  L 631.00 152.13
  L 628.59 151.70
  L 628.05 150.30
  L 630.31 150.37
  L 632.04 149.75
  Z"
/>
<path fill="none" stroke-width="1.00" stroke="#f4f4f4" vector-effect="non-scaling-stroke" d="
  M 616.04 157.75
  L 615.96 158.50
  L 615.00 156.96
  L 613.94 153.66
  L 616.04 157.75
  Z"
/>
<path fill="none" stroke-width="1.00" stroke="#f4f4f4" vector-effect="non-scaling-stroke" d="
  M 173.29 157.25
  L 173.49 157.37
  L 173.76 157.83
  L 174.31 158.27
  L 181.26 157.75
  L 191.18 157.82
  L 199.20 158.78
  L 202.86 159.10
  L 207.10 159.74
  L 211.15 162.37
  L 211.60 163.20
  L 213.69 170.13
  L 214.38 170.71
  L 216.23 171.27
  L 216.72 171.00
  L 216.72 170.95
  L 216.79 167.50
  L 217.26 170.25
  L 216.60 177.62
  L 214.40 184.46
  L 210.78 190.53
  L 205.87 195.61
  L 200.82 198.95
  L 195.00 201.29
  L 194.17 201.06
  L 194.05 200.82
  L 194.35 199.93
  L 194.78 199.15
  L 195.04 198.22
  L 194.99 197.93
  L 194.68 198.02
  L 192.78 198.71
  L 192.25 198.71
  L 196.06 196.00
  L 198.05 193.13
  L 199.05 188.58
  L 199.57 185.20
  L 200.20 184.75
  L 203.46 184.62
  L 205.70 183.82
  L 206.59 182.71
  L 205.36 182.00
  L 201.01 181.66
  L 198.06 182.85
  L 197.20 183.19
  L 194.46 182.62
  L 193.53 182.62
  L 187.57 183.66
  L 178.07 183.38
  L 173.06 183.13
  L 172.25 182.73
  L 170.06 181.24
  L 168.23 181.20
  L 166.16 182.00
  L 165.90 182.20
  L 165.61 183.57
  L 166.21 184.09
  L 172.22 185.07
  L 172.82 185.68
  L 173.06 190.65
  L 172.93 191.55
  L 174.47 195.93
  L 178.12 199.73
  L 178.64 200.49
  L 178.53 200.97
  L 176.45 201.19
  L 171.51 198.94
  L 167.21 196.24
  L 163.57 193.08
  L 160.57 189.48
  L 160.57 189.48
  L 158.12 185.22
  L 156.39 180.48
  L 155.36 175.24
  L 155.04 169.50
  L 155.41 171.94
  L 155.53 172.19
  L 155.76 171.99
  L 156.36 171.25
  L 157.93 170.30
  L 158.57 169.69
  L 159.22 167.49
  L 160.59 163.47
  L 162.38 161.14
  L 165.04 159.60
  L 167.97 158.92
  L 171.22 159.04
  L 172.16 158.90
  L 173.03 158.02
  L 173.29 157.25
  Z
  M 162.00 170.79
  L 160.28 171.09
  L 161.75 171.46
  L 165.32 173.70
  L 166.05 173.91
  L 166.01 173.15
  L 165.75 171.91
  L 165.86 170.24
  L 165.82 169.27
  L 165.80 169.24
  L 164.06 169.91
  L 162.00 170.79
  Z
  M 209.92 171.23
  L 206.76 169.41
  L 206.68 169.38
  L 206.24 169.76
  L 206.18 173.29
  L 206.59 173.68
  L 206.67 173.65
  L 209.92 172.00
  L 210.27 171.63
  L 209.92 171.23
  Z"
/>
<path fill="none" stroke-width="1.00" stroke="#f4f4f4" vector-effect="non-scaling-stroke" d="
  M 616.04 157.75
  L 619.70 162.14
  L 624.09 164.84
  L 629.00 165.93
  L 634.09 165.46
  L 639.06 163.50
  L 643.61 160.15
  L 638.61 164.30
  L 632.66 166.48
  L 626.50 166.51
  L 623.57 165.66
  L 620.85 164.20
  L 620.85 164.20
  L 620.85 164.20
  L 618.14 161.77
  L 615.96 158.50
  L 616.04 157.75
  Z"
/>
<path fill="none" stroke-width="1.00" stroke="#f4f4f4" vector-effect="non-scaling-stroke" d="
  M 232.46 160.00
  L 231.34 206.00
  L 231.62 257.81
  L 234.55 324.00
  L 235.81 332.03
  L 238.58 339.27
  L 238.58 339.27
  L 241.50 343.96
  L 241.00 344.04
  L 236.68 336.82
  L 236.68 336.82
  L 234.64 329.50
  L 233.57 318.37
  L 233.43 316.36
  L 231.71 285.52
  L 230.77 253.56
  L 230.54 219.48
  L 231.03 181.15
  L 231.48 168.22
  L 232.04 161.00
  L 232.46 160.00
  Z"
/>
<path fill="none" stroke-width="1.00" stroke="#f4f4f4" vector-effect="non-scaling-stroke" d="
  M 616.04 173.50
  L 616.38 177.67
  L 616.10 181.43
  L 615.21 184.77
  L 613.70 187.71
  L 613.70 187.71
  L 613.70 187.71
  L 611.76 190.06
  L 609.28 192.06
  L 602.75 195.00
  L 599.62 195.02
  L 593.75 194.04
  L 592.96 193.75
  L 591.87 192.54
  L 590.25 192.04
  L 586.79 188.75
  L 587.56 189.12
  L 587.79 189.16
  L 587.78 188.97
  L 587.25 187.87
  L 584.81 185.34
  L 583.92 180.59
  L 584.03 176.28
  L 585.12 172.17
  L 587.07 168.67
  L 587.07 168.67
  L 587.07 168.67
  L 590.71 165.08
  L 595.18 162.82
  L 600.12 162.00
  L 605.14 162.76
  L 605.14 162.76
  L 605.14 162.76
  L 605.14 162.76
  L 608.46 164.28
  L 611.52 166.66
  L 614.00 169.68
  L 616.04 173.50
  Z
  M 603.26 178.22
  L 604.73 175.42
  L 604.96 174.14
  L 603.16 172.54
  L 599.41 171.54
  L 595.56 171.53
  L 595.05 172.09
  L 595.19 184.96
  L 595.72 185.47
  L 597.06 185.53
  L 597.06 185.53
  L 601.59 185.41
  L 604.22 184.13
  L 604.22 184.13
  L 605.11 182.66
  L 605.48 180.46
  L 605.06 179.69
  L 603.53 178.89
  L 603.26 178.22
  Z"
/>
<path fill="none" stroke-width="1.00" stroke="#f4f4f4" vector-effect="non-scaling-stroke" d="
  M 162.00 170.79
  L 161.75 171.46
  L 160.28 171.09
  L 162.00 170.79
  Z"
/>
<path fill="none" stroke-width="1.00" stroke="#f4f4f4" vector-effect="non-scaling-stroke" d="
  M 596.66 177.41
  L 596.67 173.41
  L 597.12 172.92
  L 597.13 172.92
  L 601.19 173.06
  L 602.08 173.40
  L 603.16 175.22
  L 602.23 177.56
  L 601.39 177.89
  L 596.95 177.72
  L 596.66 177.41
  Z"
/>
<path fill="none" stroke-width="1.00" stroke="#f4f4f4" vector-effect="non-scaling-stroke" d="
  M 616.04 173.50
  L 616.80 179.97
  L 616.27 183.26
  L 615.15 186.29
  L 613.49 189.02
  L 611.36 191.35
  L 608.82 193.22
  L 605.94 194.56
  L 605.94 194.56
  L 602.97 195.29
  L 599.81 195.43
  L 593.75 194.04
  L 599.62 195.02
  L 602.75 195.00
  L 609.28 192.06
  L 611.76 190.06
  L 613.70 187.71
  L 613.70 187.71
  L 613.70 187.71
  L 615.21 184.77
  L 616.10 181.43
  L 616.38 177.67
  L 616.04 173.50
  Z"
/>
<path fill="none" stroke-width="1.00" stroke="#f4f4f4" vector-effect="non-scaling-stroke" d="
  M 601.32 184.18
  L 596.79 182.75
  L 596.77 179.50
  L 597.29 178.91
  L 599.96 178.85
  L 603.22 179.90
  L 603.72 180.63
  L 603.26 182.94
  L 601.32 184.18
  Z"
/>
<path fill="none" stroke-width="1.00" stroke="#f4f4f4" vector-effect="non-scaling-stroke" d="
  M 192.25 198.71
  L 186.17 199.92
  L 180.75 199.18
  L 180.25 199.00
  L 176.28 196.32
  L 172.93 191.55
  L 173.06 190.65
  L 172.82 185.68
  L 172.22 185.07
  L 166.21 184.09
  L 165.61 183.57
  L 165.90 182.20
  L 166.16 182.00
  L 168.23 181.20
  L 170.06 181.24
  L 172.25 182.73
  L 173.06 183.13
  L 178.07 183.38
  L 187.57 183.66
  L 193.53 182.62
  L 194.46 182.62
  L 197.20 183.19
  L 198.06 182.85
  L 201.01 181.66
  L 205.36 182.00
  L 206.59 182.71
  L 205.70 183.82
  L 203.46 184.62
  L 200.20 184.75
  L 199.57 185.20
  L 199.05 188.58
  L 198.05 193.13
  L 196.06 196.00
  L 192.25 198.71
  Z
  M 185.10 191.50
  L 184.19 191.50
  L 184.19 191.50
  L 184.25 192.58
  L 185.48 194.87
  L 185.77 195.36
  L 186.02 195.62
  L 186.26 195.41
  L 188.27 192.05
  L 188.35 191.65
  L 188.00 191.54
  L 186.05 191.60
  L 185.10 191.50
  Z"
/>
<path fill="none" stroke-width="1.00" stroke="#f4f4f4" vector-effect="non-scaling-stroke" d="
  M 568.29 182.75
  L 568.69 184.81
  L 569.06 218.38
  L 568.71 255.50
  L 568.27 259.15
  L 568.46 263.50
  L 568.21 268.50
  L 567.96 268.00
  L 568.25 226.75
  L 567.96 185.50
  L 568.29 182.75
  Z"
/>
<path fill="none" stroke-width="1.00" stroke="#f4f4f4" vector-effect="non-scaling-stroke" d="
  M 596.79 182.75
  L 601.32 184.18
  L 600.54 184.30
  L 600.54 184.30
  L 598.11 184.54
  L 596.83 184.01
  L 596.83 184.01
  L 596.79 182.75
  Z"
/>
<path fill="none" stroke-width="1.00" stroke="#f4f4f4" vector-effect="non-scaling-stroke" d="
  M 584.81 185.34
  L 587.25 187.87
  L 587.78 188.97
  L 587.79 189.16
  L 587.56 189.12
  L 586.79 188.75
  L 584.81 185.34
  Z"
/>
<path fill="none" stroke-width="1.00" stroke="#f4f4f4" vector-effect="non-scaling-stroke" d="
  M 172.93 191.55
  L 176.28 196.32
  L 180.25 199.00
  L 180.75 199.18
  L 180.75 199.18
  L 186.17 199.92
  L 192.25 198.71
  L 192.78 198.71
  L 194.68 198.02
  L 194.99 197.93
  L 195.04 198.22
  L 194.78 199.15
  L 194.35 199.93
  L 194.05 200.82
  L 194.17 201.06
  L 195.00 201.29
  L 190.51 202.38
  L 186.03 202.76
  L 186.03 202.76
  L 181.24 202.38
  L 176.45 201.19
  L 178.53 200.97
  L 178.64 200.49
  L 178.12 199.73
  L 174.47 195.93
  L 172.93 191.55
  Z"
/>
<path fill="none" stroke-width="1.00" stroke="#f4f4f4" vector-effect="non-scaling-stroke" d="
  M 590.25 192.04
  L 591.87 192.54
  L 592.96 193.75
  L 591.46 193.08
  L 590.25 192.04
  Z"
/>
<path fill="none" stroke-width="1.00" stroke="#f4f4f4" vector-effect="non-scaling-stroke" d="
  M 179.56 212.44
  L 186.22 212.60
  L 194.02 211.80
  L 194.27 211.78
  L 194.03 211.88
  L 189.16 213.12
  L 184.18 213.71
  L 179.20 213.64
  L 174.28 212.92
  L 169.55 211.54
  L 165.06 209.51
  L 161.13 206.99
  L 157.57 203.89
  L 157.57 203.89
  L 157.57 203.89
  L 157.14 203.45
  L 156.98 203.25
  L 157.19 203.38
  L 165.65 208.51
  L 174.57 211.61
  L 174.57 211.61
  L 179.56 212.44
  Z"
/>
<path fill="none" stroke-width="1.00" stroke="#f4f4f4" vector-effect="non-scaling-stroke" d="
  M 201.26 229.27
  L 195.86 228.67
  L 191.12 229.67
  L 187.54 231.86
  L 184.46 235.25
  L 184.00 235.21
  L 184.08 235.06
  L 184.08 235.06
  L 187.11 231.35
  L 191.26 229.03
  L 196.28 228.23
  L 201.26 229.27
  Z"
/>
<path fill="none" stroke-width="1.00" stroke="#f4f4f4" vector-effect="non-scaling-stroke" d="
  M 608.75 229.25
  L 603.57 228.73
  L 599.04 229.25
  L 599.00 229.04
  L 603.97 228.13
  L 608.75 229.25
  Z"
/>
<path fill="none" stroke-width="1.00" stroke="#f4f4f4" vector-effect="non-scaling-stroke" d="
  M 599.00 229.04
  L 599.04 229.25
  L 594.84 231.98
  L 592.05 235.47
  L 592.05 235.47
  L 590.55 240.58
  L 590.82 245.36
  L 592.69 249.72
  L 592.69 249.72
  L 592.69 249.72
  L 594.50 251.83
  L 596.70 253.46
  L 601.83 255.25
  L 607.26 254.97
  L 609.84 254.02
  L 612.19 252.51
  L 612.19 252.51
  L 612.19 252.51
  L 615.41 248.54
  L 617.04 243.50
  L 617.22 241.33
  L 617.84 239.49
  L 617.36 246.43
  L 616.34 249.25
  L 614.80 251.63
  L 614.80 251.63
  L 614.80 251.63
  L 612.39 253.82
  L 609.30 255.44
  L 604.00 256.61
  L 598.81 255.86
  L 598.81 255.86
  L 596.15 254.55
  L 593.88 252.73
  L 590.67 247.95
  L 589.49 242.30
  L 589.77 239.41
  L 590.69 236.59
  L 594.00 232.12
  L 599.00 229.04
  Z"
/>
<path fill="none" stroke-width="1.00" stroke="#f4f4f4" vector-effect="non-scaling-stroke" d="
  M 608.75 229.25
  L 612.47 231.15
  L 615.29 234.00
  L 615.21 234.75
  L 612.54 231.96
  L 608.75 229.25
  Z"
/>
<path fill="none" stroke-width="1.00" stroke="#f4f4f4" vector-effect="non-scaling-stroke" d="
  M 615.29 234.00
  L 617.84 239.49
  L 617.22 241.33
  L 617.04 243.50
  L 616.72 238.63
  L 615.21 234.75
  L 615.29 234.00
  Z"
/>
<path fill="none" stroke-width="1.00" stroke="#f4f4f4" vector-effect="non-scaling-stroke" d="
  M 209.96 239.25
  L 209.54 239.00
  L 207.85 234.93
  L 209.44 236.45
  L 209.96 239.25
  Z"
/>
<path fill="none" stroke-width="1.00" stroke="#f4f4f4" vector-effect="non-scaling-stroke" d="
  M 184.00 235.21
  L 184.46 235.25
  L 183.12 239.47
  L 183.04 243.59
  L 183.04 243.59
  L 183.04 243.59
  L 183.04 243.59
  L 184.23 247.74
  L 186.52 251.27
  L 189.73 253.91
  L 193.63 255.38
  L 193.63 255.38
  L 193.63 255.38
  L 198.05 255.41
  L 202.76 253.73
  L 205.18 252.06
  L 207.08 250.00
  L 207.08 250.00
  L 209.22 245.16
  L 209.54 239.00
  L 209.96 239.25
  L 210.20 244.63
  L 208.70 249.31
  L 206.91 251.90
  L 204.62 254.01
  L 201.92 255.55
  L 198.92 256.46
  L 198.92 256.46
  L 198.92 256.46
  L 194.03 256.48
  L 189.01 254.65
  L 185.11 251.26
  L 182.62 246.66
  L 181.88 241.79
  L 183.00 236.96
  L 184.00 235.21
  Z"
/>
<path fill="none" stroke-width="1.00" stroke="#f4f4f4" vector-effect="non-scaling-stroke" d="
  M 568.71 255.50
  L 568.46 263.50
  L 568.27 259.15
  L 568.71 255.50
  Z"
/>
<path fill="none" stroke-width="1.00" stroke="#f4f4f4" vector-effect="non-scaling-stroke" d="
  M 567.96 268.00
  L 568.21 268.50
  L 567.85 286.89
  L 566.46 310.50
  L 565.60 315.99
  L 566.06 308.32
  L 567.06 289.55
  L 567.25 276.01
  L 567.32 273.09
  L 567.96 268.00
  Z"
/>
<path fill="none" stroke-width="1.00" stroke="#f4f4f4" vector-effect="non-scaling-stroke" d="
  M 600.32 285.08
  L 601.84 285.40
  L 599.72 285.56
  L 599.87 285.24
  L 600.32 285.08
  Z"
/>
<ellipse fill="none" stroke-width="1.00" stroke="#f4f4f4" vector-effect="non-scaling-stroke" cx="0.00" cy="0.00" transform="translate(182.34,288.55) rotate(14.1)" rx="1.52" ry="1.36"/>
<circle fill="none" stroke-width="1.00" stroke="#f4f4f4" vector-effect="non-scaling-stroke" cx="617.90" cy="288.59" r="1.42"/>
<circle fill="none" stroke-width="1.00" stroke="#f4f4f4" vector-effect="non-scaling-stroke" cx="173.99" cy="290.13" r="1.41"/>
<path fill="none" stroke-width="1.00" stroke="#f4f4f4" vector-effect="non-scaling-stroke" d="
  M 610.36 289.34
  L 610.90 291.03
  L 608.54 291.07
  L 608.05 290.43
  L 608.50 289.20
  L 609.58 288.89
  L 610.36 289.34
  Z"
/>
<ellipse fill="none" stroke-width="1.00" stroke="#f4f4f4" vector-effect="non-scaling-stroke" cx="0.00" cy="0.00" transform="translate(626.19,290.21) rotate(6.3)" rx="1.50" ry="1.35"/>
<ellipse fill="none" stroke-width="1.00" stroke="#f4f4f4" vector-effect="non-scaling-stroke" cx="0.00" cy="0.00" transform="translate(190.62,290.24) rotate(4.5)" rx="1.46" ry="1.29"/>
<path fill="none" stroke-width="1.00" stroke="#f4f4f4" vector-effect="non-scaling-stroke" d="
  M 150.69 289.39
  L 150.82 289.51
  L 149.24 290.36
  L 149.89 289.55
  L 150.69 289.39
  Z"
/>
<path fill="none" stroke-width="1.00" stroke="#f4f4f4" vector-effect="non-scaling-stroke" d="
  M 166.89 296.06
  L 165.71 295.27
  L 166.00 293.93
  L 166.82 293.48
  L 168.07 293.86
  L 168.07 293.86
  L 168.47 294.88
  L 168.02 295.84
  L 168.02 295.84
  L 166.89 296.06
  Z"
/>
<ellipse fill="none" stroke-width="1.00" stroke="#f4f4f4" vector-effect="non-scaling-stroke" cx="0.00" cy="0.00" transform="translate(602.71,294.71) rotate(1.5)" rx="1.52" ry="1.32"/>
<path fill="none" stroke-width="1.00" stroke="#f4f4f4" vector-effect="non-scaling-stroke" d="
  M 634.15 294.06
  L 634.71 295.55
  L 632.99 296.24
  L 632.21 295.85
  L 631.85 294.43
  L 633.32 293.72
  L 634.15 294.06
  Z"
/>
<rect fill="none" stroke-width="1.00" stroke="#f4f4f4" vector-effect="non-scaling-stroke" x="-1.37" y="-1.27" transform="translate(197.64,295.01) rotate(3.9)" width="2.74" height="2.54" rx="0.98"/>
<circle fill="none" stroke-width="1.00" stroke="#f4f4f4" vector-effect="non-scaling-stroke" cx="182.12" cy="296.33" r="1.41"/>
<ellipse fill="none" stroke-width="1.00" stroke="#f4f4f4" vector-effect="non-scaling-stroke" cx="0.00" cy="0.00" transform="translate(617.70,296.37) rotate(14.8)" rx="1.49" ry="1.32"/>
<circle fill="none" stroke-width="1.00" stroke="#f4f4f4" vector-effect="non-scaling-stroke" cx="175.22" cy="298.20" r="1.40"/>
<ellipse fill="none" stroke-width="1.00" stroke="#f4f4f4" vector-effect="non-scaling-stroke" cx="0.00" cy="0.00" transform="translate(188.96,298.05) rotate(-15.0)" rx="1.47" ry="1.28"/>
<circle fill="none" stroke-width="1.00" stroke="#f4f4f4" vector-effect="non-scaling-stroke" cx="610.81" cy="298.24" r="1.48"/>
<path fill="none" stroke-width="1.00" stroke="#f4f4f4" vector-effect="non-scaling-stroke" d="
  M 623.14 298.26
  L 623.85 296.90
  L 624.71 296.71
  L 625.52 297.20
  L 626.02 298.84
  L 623.91 299.26
  L 623.90 299.26
  L 623.14 298.26
  Z"
/>
<path fill="none" stroke-width="1.00" stroke="#f4f4f4" vector-effect="non-scaling-stroke" d="
  M 597.07 302.48
  L 596.57 301.42
  L 597.41 300.10
  L 598.24 300.08
  L 599.57 301.67
  L 597.92 302.70
  L 597.07 302.48
  Z"
/>
<ellipse fill="none" stroke-width="1.00" stroke="#f4f4f4" vector-effect="non-scaling-stroke" cx="0.00" cy="0.00" transform="translate(162.47,301.51) rotate(-14.5)" rx="1.45" ry="1.36"/>
<circle fill="none" stroke-width="1.00" stroke="#f4f4f4" vector-effect="non-scaling-stroke" cx="202.11" cy="301.95" r="1.42"/>
<rect fill="none" stroke-width="1.00" stroke="#f4f4f4" vector-effect="non-scaling-stroke" x="-1.41" y="-1.40" transform="translate(637.74,301.90) rotate(-12.7)" width="2.82" height="2.80" rx="1.09"/>
<ellipse fill="none" stroke-width="1.00" stroke="#f4f4f4" vector-effect="non-scaling-stroke" cx="0.00" cy="0.00" transform="translate(170.35,303.17) rotate(-7.9)" rx="1.48" ry="1.38"/>
<ellipse fill="none" stroke-width="1.00" stroke="#f4f4f4" vector-effect="non-scaling-stroke" cx="0.00" cy="0.00" transform="translate(194.09,303.03) rotate(17.5)" rx="1.45" ry="1.30"/>
<circle fill="none" stroke-width="1.00" stroke="#f4f4f4" vector-effect="non-scaling-stroke" cx="605.83" cy="303.14" r="1.43"/>
<path fill="none" stroke-width="1.00" stroke="#f4f4f4" vector-effect="non-scaling-stroke" d="
  M 628.35 302.58
  L 629.54 301.71
  L 629.54 301.71
  L 630.82 302.46
  L 630.93 303.84
  L 629.09 304.25
  L 628.89 304.19
  L 628.24 303.51
  L 628.35 302.58
  Z"
/>
<path fill="none" stroke-width="1.00" stroke="#f4f4f4" vector-effect="non-scaling-stroke" d="
  M 183.18 303.03
  L 183.39 304.85
  L 183.39 304.85
  L 182.07 305.41
  L 180.86 304.65
  L 180.86 304.65
  L 181.08 303.33
  L 182.02 302.61
  L 183.01 302.81
  L 183.01 302.81
  L 183.18 303.03
  Z"
/>
<circle fill="none" stroke-width="1.00" stroke="#f4f4f4" vector-effect="non-scaling-stroke" cx="617.81" cy="304.02" r="1.47"/>
<circle fill="none" stroke-width="1.00" stroke="#f4f4f4" vector-effect="non-scaling-stroke" cx="160.72" cy="309.85" r="1.44"/>
<circle fill="none" stroke-width="1.00" stroke="#f4f4f4" vector-effect="non-scaling-stroke" cx="596.25" cy="309.86" r="1.44"/>
<ellipse fill="none" stroke-width="1.00" stroke="#f4f4f4" vector-effect="non-scaling-stroke" cx="0.00" cy="0.00" transform="translate(623.76,310.01) rotate(13.3)" rx="1.53" ry="1.41"/>
<ellipse fill="none" stroke-width="1.00" stroke="#f4f4f4" vector-effect="non-scaling-stroke" cx="0.00" cy="0.00" transform="translate(168.49,310.08) rotate(2.6)" rx="1.51" ry="1.30"/>
<circle fill="none" stroke-width="1.00" stroke="#f4f4f4" vector-effect="non-scaling-stroke" cx="176.21" cy="310.04" r="1.39"/>
<ellipse fill="none" stroke-width="1.00" stroke="#f4f4f4" vector-effect="non-scaling-stroke" cx="0.00" cy="0.00" transform="translate(188.24,310.05) rotate(1.3)" rx="1.52" ry="1.34"/>
<circle fill="none" stroke-width="1.00" stroke="#f4f4f4" vector-effect="non-scaling-stroke" cx="195.95" cy="310.05" r="1.44"/>
<path fill="none" stroke-width="1.00" stroke="#f4f4f4" vector-effect="non-scaling-stroke" d="
  M 204.63 309.58
  L 205.06 310.98
  L 203.43 311.56
  L 202.71 311.12
  L 202.51 309.45
  L 203.81 309.12
  L 204.63 309.58
  Z"
/>
<circle fill="none" stroke-width="1.00" stroke="#f4f4f4" vector-effect="non-scaling-stroke" cx="604.03" cy="310.10" r="1.43"/>
<circle fill="none" stroke-width="1.00" stroke="#f4f4f4" vector-effect="non-scaling-stroke" cx="611.79" cy="310.06" r="1.45"/>
<rect fill="none" stroke-width="1.00" stroke="#f4f4f4" vector-effect="non-scaling-stroke" x="-1.50" y="-1.26" transform="translate(631.48,310.04) rotate(-3.3)" width="3.00" height="2.52" rx="1.11"/>
<rect fill="none" stroke-width="1.00" stroke="#f4f4f4" vector-effect="non-scaling-stroke" x="-1.41" y="-1.31" transform="translate(639.28,310.34) rotate(34.4)" width="2.82" height="2.62" rx="0.96"/>
<path fill="none" stroke-width="1.00" stroke="#f4f4f4" vector-effect="non-scaling-stroke" d="
  M 566.46 310.50
  L 566.35 314.52
  L 565.58 327.17
  L 563.21 336.50
  L 562.79 336.00
  L 564.78 327.45
  L 565.60 315.99
  L 566.46 310.50
  Z"
/>
<path fill="none" stroke-width="1.00" stroke="#f4f4f4" vector-effect="non-scaling-stroke" d="
  M 668.75 313.04
  L 665.43 323.50
  L 661.11 333.39
  L 655.69 342.89
  L 649.32 351.69
  L 639.19 362.45
  L 627.56 371.66
  L 614.56 379.18
  L 600.33 384.87
  L 592.35 386.94
  L 584.30 388.05
  L 584.30 388.05
  L 576.07 388.22
  L 567.76 387.40
  L 568.18 387.43
  L 568.18 387.43
  L 568.18 387.43
  L 576.26 387.54
  L 584.23 386.93
  L 592.36 385.57
  L 600.30 383.49
  L 608.14 380.69
  L 615.71 377.22
  L 622.97 373.13
  L 629.88 368.44
  L 636.48 363.14
  L 642.64 357.30
  L 648.32 350.97
  L 653.48 344.18
  L 658.09 336.98
  L 662.09 329.40
  L 665.35 321.76
  L 667.98 313.83
  L 668.18 313.42
  L 668.75 313.04
  Z"
/>
<circle fill="none" stroke-width="1.00" stroke="#f4f4f4" vector-effect="non-scaling-stroke" cx="182.25" cy="316.11" r="1.47"/>
<circle fill="none" stroke-width="1.00" stroke="#f4f4f4" vector-effect="non-scaling-stroke" cx="617.79" cy="316.05" r="1.48"/>
<path fill="none" stroke-width="1.00" stroke="#f4f4f4" vector-effect="non-scaling-stroke" d="
  M 260.02 314.75
  L 263.87 317.89
  L 264.27 318.27
  L 264.27 318.27
  L 265.04 320.16
  L 264.86 322.86
  L 267.98 323.84
  L 271.28 324.22
  L 272.08 324.62
  L 273.75 328.21
  L 264.00 328.23
  L 263.69 327.85
  L 263.71 327.78
  L 264.32 325.89
  L 262.13 327.97
  L 261.30 328.29
  L 261.00 328.10
  L 261.00 328.10
  L 261.13 327.02
  L 262.58 324.84
  L 263.07 324.17
  L 262.91 323.62
  L 262.84 323.60
  L 261.21 324.01
  L 261.15 324.04
  L 260.60 323.73
  L 260.02 314.75
  Z"
/>
<circle fill="none" stroke-width="1.00" stroke="#f4f4f4" vector-effect="non-scaling-stroke" cx="170.39" cy="316.96" r="1.43"/>
<circle fill="none" stroke-width="1.00" stroke="#f4f4f4" vector-effect="non-scaling-stroke" cx="194.12" cy="316.94" r="1.43"/>
<circle fill="none" stroke-width="1.00" stroke="#f4f4f4" vector-effect="non-scaling-stroke" cx="605.95" cy="317.00" r="1.47"/>
<ellipse fill="none" stroke-width="1.00" stroke="#f4f4f4" vector-effect="non-scaling-stroke" cx="0.00" cy="0.00" transform="translate(629.65,316.93) rotate(15.7)" rx="1.51" ry="1.41"/>
<circle fill="none" stroke-width="1.00" stroke="#f4f4f4" vector-effect="non-scaling-stroke" cx="162.31" cy="318.19" r="1.43"/>
<circle fill="none" stroke-width="1.00" stroke="#f4f4f4" vector-effect="non-scaling-stroke" cx="597.89" cy="318.22" r="1.44"/>
<circle fill="none" stroke-width="1.00" stroke="#f4f4f4" vector-effect="non-scaling-stroke" cx="201.95" cy="318.69" r="1.46"/>
<circle fill="none" stroke-width="1.00" stroke="#f4f4f4" vector-effect="non-scaling-stroke" cx="637.48" cy="318.67" r="1.47"/>
<circle fill="none" stroke-width="1.00" stroke="#f4f4f4" vector-effect="non-scaling-stroke" cx="175.37" cy="321.90" r="1.45"/>
<circle fill="none" stroke-width="1.00" stroke="#f4f4f4" vector-effect="non-scaling-stroke" cx="189.14" cy="321.90" r="1.44"/>
<circle fill="none" stroke-width="1.00" stroke="#f4f4f4" vector-effect="non-scaling-stroke" cx="610.86" cy="321.93" r="1.44"/>
<ellipse fill="none" stroke-width="1.00" stroke="#f4f4f4" vector-effect="non-scaling-stroke" cx="0.00" cy="0.00" transform="translate(624.71,321.87) rotate(-18.3)" rx="1.58" ry="1.41"/>
<path fill="none" stroke-width="1.00" stroke="#f4f4f4" vector-effect="non-scaling-stroke" d="
  M 532.00 321.04
  L 532.21 321.36
  L 532.24 321.52
  L 532.24 321.55
  L 531.71 322.00
  L 269.50 322.00
  L 267.78 321.40
  L 267.71 321.25
  L 269.21 321.08
  L 271.31 320.99
  L 520.52 320.75
  L 530.49 320.75
  L 531.46 320.96
  L 532.00 321.04
  Z"
/>
<path fill="none" stroke-width="1.00" stroke="#f4f4f4" vector-effect="non-scaling-stroke" d="
  M 532.00 321.04
  L 532.25 320.96
  L 533.50 322.04
  L 532.75 322.46
  L 530.00 322.74
  L 422.63 322.64
  L 267.81 322.62
  L 266.50 322.04
  L 267.54 321.25
  L 267.71 321.25
  L 267.78 321.40
  L 269.50 322.00
  L 531.71 322.00
  L 532.24 321.55
  L 532.24 321.52
  L 532.21 321.36
  L 532.00 321.04
  Z"
/>
<path fill="none" stroke-width="1.00" stroke="#f4f4f4" vector-effect="non-scaling-stroke" d="
  M 266.25 321.96
  L 266.50 322.04
  L 267.81 322.62
  L 422.63 322.64
  L 530.00 322.74
  L 532.75 322.46
  L 533.12 323.33
  L 534.00 323.54
  L 533.01 323.74
  L 529.20 324.91
  L 528.75 325.59
  L 527.67 326.53
  L 527.50 328.21
  L 273.75 328.21
  L 272.08 324.62
  L 271.28 324.22
  L 267.98 323.84
  L 264.86 322.86
  L 266.25 321.96
  Z"
/>
<circle fill="none" stroke-width="1.00" stroke="#f4f4f4" vector-effect="non-scaling-stroke" cx="182.20" cy="323.80" r="1.49"/>
<circle fill="none" stroke-width="1.00" stroke="#f4f4f4" vector-effect="non-scaling-stroke" cx="617.82" cy="323.78" r="1.49"/>
<path fill="none" stroke-width="1.00" stroke="#f4f4f4" vector-effect="non-scaling-stroke" d="
  M 534.50 323.21
  L 534.88 323.80
  L 535.54 326.00
  L 535.40 326.64
  L 536.17 327.73
  L 536.39 327.97
  L 536.23 328.02
  L 527.50 328.21
  L 527.67 326.53
  L 528.75 325.59
  L 529.20 324.91
  L 533.01 323.74
  L 534.00 323.54
  L 534.50 323.21
  Z"
/>
<rect fill="none" stroke-width="1.00" stroke="#f4f4f4" vector-effect="non-scaling-stroke" x="-1.32" y="-1.32" transform="translate(166.85,325.11) rotate(44.9)" width="2.64" height="2.64" rx="0.97"/>
<circle fill="none" stroke-width="1.00" stroke="#f4f4f4" vector-effect="non-scaling-stroke" cx="197.24" cy="325.43" r="1.54"/>
<path fill="none" stroke-width="1.00" stroke="#f4f4f4" vector-effect="non-scaling-stroke" d="
  M 603.40 324.31
  L 603.97 325.71
  L 602.00 326.27
  L 601.27 325.80
  L 601.11 324.30
  L 602.56 323.89
  L 603.40 324.31
  Z"
/>
<ellipse fill="none" stroke-width="1.00" stroke="#f4f4f4" vector-effect="non-scaling-stroke" cx="0.00" cy="0.00" transform="translate(632.83,325.43) rotate(85.7)" rx="1.59" ry="1.42"/>
<path fill="none" stroke-width="1.00" stroke="#f4f4f4" vector-effect="non-scaling-stroke" d="
  M 151.42 327.17
  L 149.77 327.49
  L 149.40 327.46
  L 149.51 327.07
  L 150.37 326.38
  L 151.50 326.81
  L 151.64 327.04
  L 151.42 327.17
  Z"
/>
<circle fill="none" stroke-width="1.00" stroke="#f4f4f4" vector-effect="non-scaling-stroke" cx="173.67" cy="329.80" r="1.44"/>
<circle fill="none" stroke-width="1.00" stroke="#f4f4f4" vector-effect="non-scaling-stroke" cx="190.35" cy="329.95" r="1.52"/>
<path fill="none" stroke-width="1.00" stroke="#f4f4f4" vector-effect="non-scaling-stroke" d="
  M 608.67 331.06
  L 608.50 331.02
  L 607.77 330.37
  L 607.79 329.39
  L 608.55 328.56
  L 609.78 328.53
  L 610.43 329.18
  L 610.39 330.75
  L 608.67 331.06
  Z"
/>
<circle fill="none" stroke-width="1.00" stroke="#f4f4f4" vector-effect="non-scaling-stroke" cx="625.96" cy="329.95" r="1.48"/>
<circle fill="none" stroke-width="1.00" stroke="#f4f4f4" vector-effect="non-scaling-stroke" cx="181.99" cy="331.61" r="1.47"/>
<circle fill="none" stroke-width="1.00" stroke="#f4f4f4" vector-effect="non-scaling-stroke" cx="617.54" cy="331.61" r="1.46"/>
<path fill="none" stroke-width="1.00" stroke="#f4f4f4" vector-effect="non-scaling-stroke" d="
  M 138.29 332.00
  L 139.27 333.03
  L 140.79 335.50
  L 140.54 336.50
  L 138.29 332.00
  Z"
/>
<path fill="none" stroke-width="1.00" stroke="#f4f4f4" vector-effect="non-scaling-stroke" d="
  M 156.92 334.66
  L 156.76 334.82
  L 156.00 334.71
  L 155.83 334.13
  L 155.89 334.07
  L 156.08 333.97
  L 156.60 333.98
  L 156.95 334.60
  L 156.92 334.66
  Z"
/>
<path fill="none" stroke-width="1.00" stroke="#f4f4f4" vector-effect="non-scaling-stroke" d="
  M 191.67 335.91
  L 191.51 336.07
  L 190.75 335.96
  L 190.58 335.38
  L 190.64 335.32
  L 190.83 335.22
  L 191.35 335.23
  L 191.70 335.85
  L 191.67 335.91
  Z"
/>
<path fill="none" stroke-width="1.00" stroke="#f4f4f4" vector-effect="non-scaling-stroke" d="
  M 626.80 335.98
  L 626.56 335.77
  L 626.53 335.74
  L 626.61 335.42
  L 627.46 335.30
  L 627.41 335.87
  L 627.38 335.92
  L 626.80 335.98
  Z"
/>
<path fill="none" stroke-width="1.00" stroke="#f4f4f4" vector-effect="non-scaling-stroke" d="
  M 140.79 335.50
  L 144.00 341.21
  L 143.00 340.79
  L 140.54 336.50
  L 140.79 335.50
  Z"
/>
<path fill="none" stroke-width="1.00" stroke="#f4f4f4" vector-effect="non-scaling-stroke" d="
  M 562.79 336.00
  L 563.21 336.50
  L 562.21 338.50
  L 561.96 338.00
  L 562.79 336.00
  Z"
/>
<path fill="none" stroke-width="1.00" stroke="#f4f4f4" vector-effect="non-scaling-stroke" d="
  M 561.96 338.00
  L 562.21 338.50
  L 559.26 343.45
  L 555.56 347.56
  L 555.56 347.56
  L 555.56 347.56
  L 551.15 350.82
  L 546.00 353.25
  L 551.04 350.41
  L 555.41 346.87
  L 559.00 342.77
  L 561.96 338.00
  Z"
/>
<path fill="none" stroke-width="1.00" stroke="#f4f4f4" vector-effect="non-scaling-stroke" d="
  M 200.63 339.85
  L 201.62 339.92
  L 201.37 340.41
  L 200.50 340.77
  L 199.88 340.55
  L 199.91 340.29
  L 200.63 339.85
  Z"
/>
<path fill="none" stroke-width="1.00" stroke="#f4f4f4" vector-effect="non-scaling-stroke" d="
  M 164.72 340.39
  L 164.73 340.59
  L 163.65 340.81
  L 162.72 340.41
  L 164.05 340.04
  L 164.72 340.39
  Z"
/>
<path fill="none" stroke-width="1.00" stroke="#f4f4f4" vector-effect="non-scaling-stroke" d="
  M 599.05 340.08
  L 600.31 340.35
  L 599.12 340.65
  L 598.59 340.49
  L 598.56 340.41
  L 598.63 340.23
  L 599.05 340.08
  Z"
/>
<path fill="none" stroke-width="1.00" stroke="#f4f4f4" vector-effect="non-scaling-stroke" d="
  M 143.00 340.79
  L 144.00 341.21
  L 145.01 342.25
  L 145.71 343.75
  L 145.46 344.75
  L 143.00 340.79
  Z"
/>
<path fill="none" stroke-width="1.00" stroke="#f4f4f4" vector-effect="non-scaling-stroke" d="
  M 192.49 343.73
  L 192.33 344.16
  L 192.33 344.16
  L 191.45 344.03
  L 191.00 343.37
  L 191.00 343.37
  L 192.02 343.24
  L 192.49 343.73
  Z"
/>
<path fill="none" stroke-width="1.00" stroke="#f4f4f4" vector-effect="non-scaling-stroke" d="
  M 607.55 343.60
  L 607.62 343.12
  L 608.33 343.25
  L 608.64 343.98
  L 608.43 344.21
  L 608.12 344.24
  L 607.55 343.60
  Z"
/>
<path fill="none" stroke-width="1.00" stroke="#f4f4f4" vector-effect="non-scaling-stroke" d="
  M 628.40 343.67
  L 628.43 343.97
  L 628.43 343.97
  L 627.35 344.06
  L 626.46 343.57
  L 626.46 343.57
  L 627.77 343.31
  L 628.40 343.67
  Z"
/>
<path fill="none" stroke-width="1.00" stroke="#f4f4f4" vector-effect="non-scaling-stroke" d="
  M 145.71 343.75
  L 152.70 352.69
  L 158.18 358.57
  L 166.06 365.24
  L 174.60 371.29
  L 183.38 376.44
  L 192.60 380.78
  L 201.58 384.01
  L 210.79 386.32
  L 219.73 387.57
  L 228.75 387.79
  L 217.94 388.17
  L 206.55 386.70
  L 195.30 383.50
  L 183.90 378.50
  L 172.71 371.78
  L 162.46 363.81
  L 153.21 354.64
  L 145.46 344.75
  L 145.71 343.75
  Z"
/>
<path fill="none" stroke-width="1.00" stroke="#f4f4f4" vector-effect="non-scaling-stroke" d="
  M 241.00 344.04
  L 241.50 343.96
  L 246.54 349.00
  L 246.46 349.25
  L 241.00 344.04
  Z"
/>
<path fill="none" stroke-width="1.00" stroke="#f4f4f4" vector-effect="non-scaling-stroke" d="
  M 616.99 345.19
  L 616.99 344.89
  L 617.03 344.87
  L 618.01 344.73
  L 618.71 345.14
  L 618.70 345.77
  L 618.62 345.81
  L 616.99 345.19
  Z"
/>
<path fill="none" stroke-width="1.00" stroke="#f4f4f4" vector-effect="non-scaling-stroke" d="
  M 181.63 345.27
  L 181.71 345.01
  L 181.71 345.01
  L 182.73 345.03
  L 183.41 345.64
  L 183.41 345.64
  L 182.24 345.81
  L 181.63 345.27
  Z"
/>
<path fill="none" stroke-width="1.00" stroke="#f4f4f4" vector-effect="non-scaling-stroke" d="
  M 246.54 349.00
  L 248.36 349.92
  L 249.46 351.25
  L 246.46 349.25
  L 246.54 349.00
  Z"
/>
<path fill="none" stroke-width="1.00" stroke="#f4f4f4" vector-effect="non-scaling-stroke" d="
  M 546.00 353.25
  L 539.47 355.43
  L 531.25 355.96
  L 531.42 355.88
  L 532.37 355.56
  L 538.99 354.99
  L 546.00 353.25
  Z"
/>
<path fill="none" stroke-width="1.00" stroke="#f4f4f4" vector-effect="non-scaling-stroke" d="
  M 258.50 355.04
  L 262.75 355.29
  L 262.75 355.71
  L 260.71 355.61
  L 258.50 355.04
  Z"
/>
<path fill="none" stroke-width="1.00" stroke="#f4f4f4" vector-effect="non-scaling-stroke" d="
  M 262.75 355.29
  L 269.75 355.79
  L 269.75 356.21
  L 262.75 355.71
  L 262.75 355.29
  Z"
/>
<path fill="none" stroke-width="1.00" stroke="#f4f4f4" vector-effect="non-scaling-stroke" d="
  M 269.75 355.79
  L 289.50 357.04
  L 288.75 357.29
  L 269.75 356.21
  L 269.75 355.79
  Z"
/>
<path fill="none" stroke-width="1.00" stroke="#f4f4f4" vector-effect="non-scaling-stroke" d="
  M 531.00 355.96
  L 513.19 357.37
  L 506.02 357.77
  L 500.01 358.13
  L 487.75 358.46
  L 531.00 355.96
  Z"
/>
<path fill="none" stroke-width="1.00" stroke="#f4f4f4" vector-effect="non-scaling-stroke" d="
  M 289.50 357.04
  L 312.00 358.46
  L 301.65 358.21
  L 288.75 357.29
  L 289.50 357.04
  Z"
/>
<path fill="none" stroke-width="1.00" stroke="#f4f4f4" vector-effect="non-scaling-stroke" d="
  M 331.75 359.21
  L 321.78 359.12
  L 312.21 358.50
  L 320.77 358.44
  L 331.75 359.21
  Z"
/>
<path fill="none" stroke-width="1.00" stroke="#f4f4f4" vector-effect="non-scaling-stroke" d="
  M 487.50 358.54
  L 477.76 359.14
  L 467.00 359.21
  L 478.14 358.47
  L 487.50 358.54
  Z"
/>
<path fill="none" stroke-width="1.00" stroke="#f4f4f4" vector-effect="non-scaling-stroke" d="
  M 466.00 359.29
  L 452.75 359.96
  L 453.00 359.54
  L 466.00 359.29
  Z"
/>
<path fill="none" stroke-width="1.00" stroke="#f4f4f4" vector-effect="non-scaling-stroke" d="
  M 333.75 359.29
  L 364.25 359.79
  L 358.75 360.31
  L 333.75 359.29
  Z"
/>
<path fill="none" stroke-width="1.00" stroke="#f4f4f4" vector-effect="non-scaling-stroke" d="
  M 453.00 359.54
  L 452.75 359.96
  L 435.30 360.49
  L 435.21 360.00
  L 442.36 359.51
  L 453.00 359.54
  Z"
/>
<path fill="none" stroke-width="1.00" stroke="#f4f4f4" vector-effect="non-scaling-stroke" d="
  M 364.25 359.79
  L 435.21 360.00
  L 435.30 360.49
  L 390.94 360.80
  L 358.75 360.31
  L 364.25 359.79
  Z"
/>
</svg>
